<?xml version="1.0" standalone="no"?>
<!DOCTYPE svg PUBLIC "-//W3C//DTD SVG 1.1//EN" "http://www.w3.org/Graphics/SVG/1.1/DTD/svg11.dtd" >
<svg xmlns="http://www.w3.org/2000/svg" xmlns:xlink="http://www.w3.org/1999/xlink" version="1.1" viewBox="-10 0 1960 1200">
   <path fill="currentColor"
d="M1500 555h80c0 36 54 65 120 65s120 -29 120 -65s-54 -65 -120 -65h-40v-80h40c66 0 120 -29 120 -65s-54 -65 -120 -65s-120 29 -120 65h-80c0 -80 90 -145 200 -145s200 65 200 145c0 41 -24 79 -72 105c48 26 72 64 72 105c0 80 -90 145 -200 145s-200 -65 -200 -145z
M1050 450c0 -138 90 -250 200 -250s200 112 200 250s-90 250 -200 250s-200 -112 -200 -250zM1130 450c0 94 54 170 120 170s120 -76 120 -170s-54 -170 -120 -170s-120 76 -120 170zM730 850h35c14 0 25 -11 25 -25s-11 -25 -25 -25h-35v50zM50 700v-80h135v-311l-135 51
v-80l215 -80v420h135v80h-350zM600 450c0 -138 90 -250 200 -250s200 112 200 250s-90 250 -200 250s-200 -112 -200 -250zM680 450c0 94 54 170 120 170s120 -76 120 -170s-54 -170 -120 -170s-120 76 -120 170zM450 700v-100h100v100h-100zM50 750h80l50 176l50 -176h80
l-90 250h-80zM390 1000v-250h180v50h-100v50h80v50h-80v50h100v50h-180zM650 1000v-250h130c54 0 90 34 90 75c0 32 -21 59 -56 70l56 105h-80l-46 -100h-14v100h-80z" />
</svg>
